# xmcd CD database file
#
# Track frame offsets:
#	150
#	18920
#	44357
#	70913
#	90079
#	112892
#	136858
#	162085
#	184167
#	210103
#	241336
#	264616
#	294045
#
# Disc length: 4044 seconds
#
# Revision: 0
# Processed by: cddbd v1.4PL0 Copyright (c) Steve Scherf et al.
# Submitted via: Feurio! 1.63 - http://www.feurio.com
#
DISCID=9c0fca0d
DTITLE=Satan and Adam - Living On The River
DYEAR=1900
DGENRE=blues
TTITLE0=no more doggin'
TTITLE1=unlucky in love
TTITLE2=ode to billy joe
TTITLE3=sanctified blues
TTITLE4=i'm a girl watcher
TTITLE5=little red rooster
TTITLE6=pick up the pieces of my life
TTITLE7=proud mary
TTITLE8=i'll get you
TTITLE9=i got a woman
TTITLE10=whole lotta nothin'
TTITLE11=stagger lee
TTITLE12=multimedia track
EXTD=contains multimedia track playable only on macintosh 
EXTT0=
EXTT1=
EXTT2=
EXTT3=
EXTT4=
EXTT5=
EXTT6=
EXTT7=
EXTT8=
EXTT9=
EXTT10=
EXTT11=
EXTT12=
PLAYORDER=
